PathFileType	4	(X/Y/Z)	C:/Users/opensim2020/Desktop/walking_exp_matlab/subject01_walking14_straight_04.trc																																																																																																																												
DataRate	CameraRate	NumFrames	NumMarkers	Units	OrigDataRate	OrigDataStartFrame	OrigNumFrames																																																																																																																								
100	100	7	42	mm	100	2118	89																																																																																																																								
Frame#	Time	LFHD			RFHD			LBHD			RBHD			C7			T10			CLAV			STRN			RBAK			LSHO			LUPA			LELB			LFRM			LWRA			LWRB			LFIN			RSHO			RUPA			RELB			RFRM			RWRA			RWRB			RFIN			LASI			RASI			LPSI			RPSI			LTHI			LKNE			LTIB			LANK			LHEE			LTOE			RTHI			RKNE			RTIB			RANK			RHEE			RTOE			*39			*40			*41		
		X1	Y1	Z1	X2	Y2	Z2	X3	Y3	Z3	X4	Y4	Z4	X5	Y5	Z5	X6	Y6	Z6	X7	Y7	Z7	X8	Y8	Z8	X9	Y9	Z9	X10	Y10	Z10	X11	Y11	Z11	X12	Y12	Z12	X13	Y13	Z13	X14	Y14	Z14	X15	Y15	Z15	X16	Y16	Z16	X17	Y17	Z17	X18	Y18	Z18	X19	Y19	Z19	X20	Y20	Z20	X21	Y21	Z21	X22	Y22	Z22	X23	Y23	Z23	X24	Y24	Z24	X25	Y25	Z25	X26	Y26	Z26	X27	Y27	Z27	X28	Y28	Z28	X29	Y29	Z29	X30	Y30	Z30	X31	Y31	Z31	X32	Y32	Z32	X33	Y33	Z33	X34	Y34	Z34	X35	Y35	Z35	X36	Y36	Z36	X37	Y37	Z37	X38	Y38	Z38	X39	Y39	Z39	X40	Y40	Z40	X41	Y41	Z41	X42	Y42	Z42
																																																																																																																															
45	0.44	-73.53422	1660.66882	1069.90308	-17.90694	1663.17322	1170.25171	-182.19461	1629.85645	1124.49744	-126.08601	1631.76831	1229.71167	-225.82848	1435.48792	1148.4967	-279.64005	1142.80371	1146.5033	-83.38879	1361.18079	1143.09473	-50.47342	1204.5603	1138.62073	-291.13907	1246.72595	1224.02295	-147.84058	1403.31836	987.5802	-217.0648	1236.33398	895.09485	-266.19086	1094.32373	889.94812	-255.60822	979.96136	864.05157	-206.74202	848.78711	877.09271	-262.52701	857.46942	858.16199	-235.14168	780.59595	840.61053	-146.74521	1402.23523	1291.62268	-201.66547	1211.75049	1400.59766	-185.16573	1083.7605	1415.09375	-101.86784	988.83978	1432.83813	22.2767	931.57904	1395.80627	-9.57834	907.80707	1437.07385	64.46613	867.33734	1433.66284	-104.61996	936.052	1041.20459	-116.85208	932.09863	1258.14929	-292.10495	944.98859	1080.33008	-299.50266	954.00122	1223.94678	-37.00341	622.7807	976.25989	-8.60399	491.42932	995.89008	-59.28874	307.99307	996.90698	-79.10274	91.48279	1056.20691	-112.9404	61.71268	1119.38477	56.07514	54.43513	1030.1615	-226.59953	606.53589	1306.9679	-248.52258	448.68533	1282.36804	-331.62079	292.37903	1285.38086	-384.12927	90.61916	1234.38037	-433.63663	59.81051	1180.20276	-248.82426	35.95517	1240.12683	-33.44918	1697.9718	1151.94055	-1973.18591	1023.33337	3101.88965	-2012.49817	1022.10211	3140.68945
46	0.45	-60.31899	1659.11829	1068.80774	-4.59105	1661.76233	1168.7406	-168.87845	1628.29138	1123.59448	-112.43556	1630.38794	1228.73535	-212.40833	1434.15137	1148.03479	-266.52036	1141.52258	1146.09839	-69.99454	1359.64319	1142.41711	-37.18797	1203.08826	1138.3291	-277.6937	1245.54736	1223.98584	-134.79076	1401.53455	986.81171	-205.63576	1234.65503	895.27313	-255.95392	1093.5061	890.77325	-248.20264	979.14532	864.62592	-203.1425	846.54926	876.52881	-258.68271	856.96234	858.16278	-234.00067	779.4054	840.08124	-132.82579	1401.29199	1290.9021	-186.80261	1211.19104	1400.90198	-169.29329	1083.37158	1416.02246	-83.3561	990.53967	1432.61609	41.75663	936.8537	1393.98865	11.22198	912.1485	1435.34106	86.27991	873.81909	1431.19238	-90.96796	934.52411	1041.56885	-104.22525	930.85272	1258.50232	-278.54672	943.59369	1079.52673	-286.7236	953.29205	1222.92981	-24.19988	620.76721	976.6618	4.74292	489.93445	997.12976	-35.59062	304.65915	997.02209	-40.82554	85.99047	1056.08435	-73.66227	54.56187	1118.98621	96.86515	57.41486	1031.72607	-218.16043	606.60437	1307.06018	-242.33304	448.88135	1282.56201	-327.8262	293.79846	1285.16418	-383.00833	92.60897	1234.28528	-432.9162	62.69344	1180.33142	-248.55139	35.86414	1240.1344	-20.18366	1696.44336	1150.56689	-1973.16333	1023.50708	3102.052	-2012.53845	1022.0249	3140.79077
47	0.46	-46.76296	1657.90479	1067.35022	8.95006	1660.33801	1167.26929	-155.53127	1626.65137	1122.63501	-98.82121	1628.89124	1227.53931	-198.92885	1432.72937	1147.36633	-253.24506	1140.15222	1145.4303	-56.49882	1358.1001	1141.55603	-23.80019	1201.53357	1137.91675	-264.09244	1244.32874	1223.78088	-121.58693	1399.67395	985.89728	-194.17171	1233.00183	895.0946	-245.49753	1092.47949	891.47638	-240.46016	978.32147	865.09052	-198.75925	844.41205	876.0835	-254.27705	856.50494	858.68195	-232.07149	778.30377	839.55475	-118.92291	1400.35242	1290.16443	-172.0358	1210.61353	1401.0011	-153.53299	1082.94739	1416.75159	-65.23508	992.20587	1432.23157	60.64318	941.80499	1392.14917	31.24283	916.2749	1433.90784	107.34854	879.95593	1428.79419	-76.98428	932.85522	1041.80652	-91.42807	929.62488	1258.81384	-264.76584	942.27014	1078.77295	-273.6557	952.56299	1221.89087	-12.08716	618.2713	976.93555	17.84374	488.2854	998.33813	-12.64661	301.81982	997.21497	-3.88586	81.9962	1055.9884	-35.28481	48.63414	1118.41309	135.94669	62.15539	1033.08484	-209.49896	606.66492	1306.97876	-235.82088	449.11096	1282.60046	-323.48627	295.32254	1284.94482	-381.68842	94.86808	1234.48987	-432.03784	65.80242	1180.51318	-248.29102	35.76307	1240.06665	-6.73573	1695.03528	1149.08435	-1973.09875	1023.52069	3102.06396	-2012.50952	1022.07617	3140.83203
48	0.47	-34.01912	1656.13892	1065.65967	22.43751	1658.89014	1165.71094	-142.14243	1624.87476	1121.43323	-85.15578	1627.3291	1226.24329	-185.44357	1431.23425	1146.49341	-239.86476	1138.66284	1144.59814	-42.99359	1356.54187	1140.59363	-10.344	1200.04846	1137.41272	-250.53207	1243.0293	1223.44055	-108.21606	1397.74963	984.76617	-182.17477	1231.03552	895.07275	-234.63176	1091.31641	892.1358	-232.25989	977.47192	865.41522	-193.72464	842.42377	875.70435	-249.01927	855.99976	858.50372	-229.05148	777.3067	839.27533	-105.05059	1399.33313	1289.14258	-157.33353	1209.9209	1400.62329	-138.05524	1082.52136	1417.34436	-47.688	993.71753	1432.01453	78.98624	946.44672	1390.36365	50.68018	920.20178	1432.33411	127.60239	885.83936	1426.44629	-62.74169	931.08203	1042.0636	-78.30895	928.39679	1259.07361	-250.51276	940.66858	1077.96924	-260.3205	951.68915	1220.75061	-1.14106	615.37225	977.35052	30.89457	486.55313	999.5415	9.79384	299.36432	997.66425	31.71877	79.51751	1055.71667	1.83164	44.20678	1118.00806	173.17212	68.05785	1034.16223	-200.68155	607.17847	1307.65198	-228.72195	449.23355	1282.85925	-318.61444	296.88846	1284.97961	-380.06778	97.08939	1234.56921	-431.09192	69.21817	1180.83899	-248.11322	35.93213	1240.14197	6.61997	1693.41223	1147.38635	-1973.21875	1023.41095	3101.88135	-2012.56702	1022.15106	3140.66284
49	0.48	-20.75866	1654.25586	1064.25415	35.70056	1657.30066	1163.79395	-128.74701	1623.15564	1120.06323	-71.50703	1625.7428	1224.73523	-171.89789	1429.69629	1145.41663	-226.39848	1137.09167	1143.60852	-29.4339	1354.96936	1139.42761	3.12138	1198.57397	1136.76587	-236.86066	1241.71167	1222.96765	-95.07111	1395.81287	983.39264	-170.2258	1229.21863	894.56018	-223.45183	1090.19092	892.54755	-223.47617	976.44739	865.70172	-187.90958	840.57806	875.32123	-243.06366	855.52106	858.8125	-225.22528	776.36084	839.0246	-91.20255	1398.3092	1287.95154	-142.77594	1209.3905	1400.41089	-122.87608	1082.1438	1417.81921	-30.44099	995.10461	1431.37537	96.73998	950.75732	1388.58398	69.39042	923.84985	1430.91418	147.14485	891.2041	1424.18127	-48.20828	929.3739	1042.25269	-65.15609	927.17151	1259.27295	-236.29996	939.0752	1077.10901	-246.74756	950.81555	1219.64954	10.09233	612.3443	977.12659	44.0943	484.64719	1000.69257	31.97159	297.4213	998.11682	65.61468	78.30537	1055.5061	36.939	41.25789	1117.40979	207.63135	74.00432	1034.87073	-191.32629	607.32538	1308.00195	-221.00203	449.33563	1283.30713	-313.33707	298.3335	1284.83594	-378.45932	99.61949	1235.06165	-430.06668	72.92288	1181.29541	-247.82832	35.88965	1240.21912	19.99562	1692.01782	1145.71338	-1973.15466	1023.45361	3101.97681	-2012.60852	1022.05103	3140.53662
50	0.49	-7.46982	1652.60632	1062.47864	49.25901	1655.91077	1161.98962	-115.32011	1621.42432	1118.46619	-57.8882	1624.19385	1223.02234	-158.41522	1428.21826	1144.17871	-212.74675	1135.50952	1142.5448	-15.83551	1353.41357	1138.09229	16.82407	1197.11877	1136.03723	-223.26888	1240.40137	1222.33472	-81.60433	1393.81079	981.9632	-157.86584	1227.21362	893.98651	-211.88184	1088.87134	892.75958	-214.25063	975.38269	865.77643	-181.29201	838.69403	875.06586	-236.20894	854.84937	858.97992	-220.21544	775.2326	838.97327	-77.39019	1397.26392	1286.36194	-128.24698	1208.90918	1400.01038	-107.74772	1081.6626	1417.9209	-13.67508	996.33301	1430.77393	113.8879	954.60498	1386.85376	87.47036	927.26337	1429.65417	165.88467	896.17627	1421.99854	-33.4744	927.61609	1042.46558	-51.52792	925.9151	1259.39709	-221.99596	937.46973	1076.11829	-232.9794	949.80725	1218.60535	21.70331	609.2522	976.03369	57.42611	482.76538	1001.68817	53.03435	295.90494	998.50311	96.72612	78.12494	1055.20557	69.67542	39.61805	1116.96106	239.37987	79.86866	1035.32703	-181.44261	607.37695	1308.28369	-212.70898	449.35291	1283.88318	-307.66406	299.88577	1285.05823	-376.841	102.53657	1235.75952	-429.05655	77.13441	1182.15234	-247.61598	35.87397	1240.32568	33.34901	1690.32361	1143.80896	-1973.17065	1023.43286	3101.9646	-2012.55908	1022.10986	3140.66602
51	0.5	5.9381	1650.90808	1060.56982	62.674	1654.31531	1159.75684	-101.82618	1619.84106	1116.88867	-44.20985	1622.69922	1221.26819	-145.02524	1426.68225	1143.04944	-198.92528	1133.8512	1141.48584	-2.13245	1351.92102	1136.63733	30.56839	1195.76074	1135.01941	-209.53857	1239.07922	1221.47595	-68.46926	1391.95068	980.59369	-145.12805	1225.2041	893.26324	-200.12166	1087.37476	893.29565	-204.42592	974.13379	865.86078	-173.83905	836.79742	874.8454	-228.51076	854.09259	858.63489	-214.11783	774.21454	838.88312	-63.64388	1396.23877	1284.96191	-113.85838	1208.42188	1399.45203	-92.89123	1081.27393	1417.93909	2.63838	997.45441	1430.15234	130.53423	958.05066	1385.22705	104.97068	930.06354	1427.90906	183.91406	900.62469	1419.89526	-18.59506	926.01172	1042.44495	-37.93352	924.57373	1259.25427	-207.44574	935.79718	1075.13477	-218.87686	948.72736	1217.48938	33.07237	606.10248	974.82697	70.82571	480.93643	1002.47955	72.98917	294.78015	998.84833	125.39493	78.1601	1055.41003	99.78246	38.76537	1117.24255	268.08514	85.00336	1035.70642	-170.80902	607.44647	1309.12695	-203.9408	449.30688	1284.41248	-301.83682	301.73544	1285.42688	-374.88199	105.43733	1236.6239	-427.40594	81.39132	1183.0979	-247.33846	35.96903	1240.50012	46.84601	1688.93506	1141.83813	-1973.13501	1023.31891	3101.84229	-2012.47229	1022.03259	3140.73584
